<?xml version="1.0" encoding="utf-8"?>
<!-- Generator: Adobe Illustrator 19.1.0, SVG Export Plug-In . SVG Version: 6.00 Build 0)  -->
<svg version="1.1" id="Layer_1" xmlns="http://www.w3.org/2000/svg" xmlns:xlink="http://www.w3.org/1999/xlink" x="0px" y="0px"
	 viewBox="0 0 612 792" style="enable-background:new 0 0 612 792;" xml:space="preserve">
<style type="text/css">
	.st0{fill:#787878;}
</style>
<path class="st0" d="M457.6,590.1c-25,73-84.1,141.9-99.1,178.9c-8-31-130.5-117.3-130.5-117.3s-84.5-68.7-91.5-179.7
	s29.4-188.5,80-322.3c-19,107.3,83.5,222.9,184,295.3C483.5,512.1,457.6,590.1,457.6,590.1z"/>
<path class="st0" d="M284.3,222.5c-24.3-75.5,21.2-200,21.2-200c15.2,132.3,109,112.7,135.8,209.1c26.7,96.4-8.9,189.1-8.9,189.1
	C401.3,347.8,305.9,316.3,284.3,222.5z"/>
</svg>
